<svg width="52" height="52" viewBox="0 0 52 52" fill="none" xmlns="http://www.w3.org/2000/svg">
<path opacity="0.4" d="M26 4.33366C37.9662 4.33366 47.6667 14.0342 47.6667 26.0003C47.6667 37.9665 37.9662 47.667 26 47.667C14.0339 47.667 4.33337 37.9665 4.33337 26.0003C4.33337 14.0342 14.0339 4.33366 26 4.33366Z" fill="black"/>
<path d="M33.6482 26.0647C33.0198 26.693 31.9798 26.693 31.3515 26.0647L27.6248 22.338V33.583C27.6248 34.4713 26.8882 35.208 25.9998 35.208C25.1115 35.208 24.3748 34.4713 24.3748 33.583V22.338L20.6482 26.0647C20.0198 26.693 18.9798 26.693 18.3515 26.0647C17.7232 25.4363 17.7232 24.3963 18.3515 23.768L24.8515 17.268C25.1765 16.943 25.5882 16.7913 25.9998 16.7913C26.4115 16.7913 26.8232 16.943 27.1482 17.268L33.6482 23.768C34.2765 24.3963 34.2765 25.4363 33.6482 26.0647Z" fill="black"/>
</svg>
