<svg width="70" height="70" viewBox="0 0 70 70" fill="none" xmlns="http://www.w3.org/2000/svg">
<path opacity="0.4" d="M64.1666 22.7788V47.2205C64.1666 55.4163 60.4041 61.0454 53.7833 63.1746C51.8583 63.8454 49.6416 64.1663 47.2208 64.1663H22.7791C20.3582 64.1663 18.1416 63.8454 16.2166 63.1746C9.59574 61.0454 5.83325 55.4163 5.83325 47.2205V22.7788C5.83325 12.1622 12.1624 5.83301 22.7791 5.83301H47.2208C57.8374 5.83301 64.1666 12.1622 64.1666 22.7788Z" fill="#171717"/>
<path d="M53.7832 63.1753C51.8582 63.8461 49.6416 64.167 47.2207 64.167H22.7791C20.3582 64.167 18.1416 63.8461 16.2166 63.1753C17.2374 55.4753 25.2874 49.4961 34.9999 49.4961C44.7124 49.4961 52.7624 55.4753 53.7832 63.1753Z" fill="#171717"/>
<path d="M45.4417 33.7747C45.4417 39.5497 40.775 44.2455 35 44.2455C29.225 44.2455 24.5583 39.5497 24.5583 33.7747C24.5583 27.9997 29.225 23.333 35 23.333C40.775 23.333 45.4417 27.9997 45.4417 33.7747Z" fill="#171717"/>
</svg>
