<svg width="70" height="70" viewBox="0 0 70 70" fill="none" xmlns="http://www.w3.org/2000/svg">
<path d="M53.3167 28.467V37.6253C53.3167 38.2086 53.2875 38.7919 53.2292 39.3461C52.7042 45.5294 49.0583 48.6211 42.35 48.6211H41.4458C40.8625 48.6211 40.3083 48.8836 39.9875 49.3503L37.2458 53.0253C36.0208 54.6586 34.0667 54.6586 32.8417 53.0253L30.1001 49.3503C29.8084 48.9711 29.1376 48.6211 28.6417 48.6211H27.7376C20.4167 48.6211 16.7709 46.8128 16.7709 37.6545V28.4961C16.7709 21.7877 19.8625 18.142 26.0459 17.617C26.6 17.5586 27.1833 17.5295 27.7667 17.5295H42.4375C49.6417 17.5003 53.3167 21.1753 53.3167 28.467Z" fill="#171717"/>
<path opacity="0.4" d="M47.2209 5.83301H22.8084C12.1917 5.83301 5.86255 12.1622 5.86255 22.7788V47.1913C5.86255 57.808 12.1917 64.1371 22.8084 64.1371H47.2209C57.8375 64.1371 64.1667 57.808 64.1667 47.1913V22.7788C64.1667 12.1622 57.8375 5.83301 47.2209 5.83301Z" fill="#171717"/>
</svg>
