<svg width="65" height="65" viewBox="0 0 65 65" fill="none" xmlns="http://www.w3.org/2000/svg">
<path d="M49.5083 26.4338V34.9379C49.5083 35.4795 49.4812 36.0212 49.4271 36.5358C48.9396 42.2775 45.5541 45.1483 39.325 45.1483H38.4854C37.9437 45.1483 37.4291 45.3921 37.1312 45.8254L34.5854 49.2379C33.4479 50.7545 31.6334 50.7545 30.4959 49.2379L27.95 45.8254C27.6792 45.4733 27.0563 45.1483 26.5958 45.1483H25.7563C18.9584 45.1483 15.5729 43.4692 15.5729 34.965V26.4608C15.5729 20.2316 18.4437 16.8463 24.1854 16.3588C24.7 16.3046 25.2416 16.2775 25.7833 16.2775H39.4062C46.0958 16.2504 49.5083 19.6629 49.5083 26.4338Z" fill="white"/>
<path opacity="0.4" d="M43.8479 5.41699H21.1792C11.3209 5.41699 5.44378 11.2941 5.44378 21.1524V43.8211C5.44378 53.6795 11.3209 59.5565 21.1792 59.5565H43.8479C53.7063 59.5565 59.5833 53.6795 59.5833 43.8211V21.1524C59.5833 11.2941 53.7063 5.41699 43.8479 5.41699Z" fill="white"/>
</svg>
