<svg width="65" height="65" viewBox="0 0 65 65" fill="none" xmlns="http://www.w3.org/2000/svg">
<path opacity="0.4" d="M59.5833 21.1524V43.8483C59.5833 51.4587 56.0896 56.6857 49.9417 58.6628C48.1542 59.2857 46.0958 59.5837 43.8479 59.5837H21.1521C18.9042 59.5837 16.8458 59.2857 15.0583 58.6628C8.91041 56.6857 5.41667 51.4587 5.41667 43.8483V21.1524C5.41667 11.2941 11.2937 5.41699 21.1521 5.41699H43.8479C53.7063 5.41699 59.5833 11.2941 59.5833 21.1524Z" fill="white"/>
<path d="M49.9417 58.6621C48.1542 59.285 46.0958 59.583 43.8479 59.583H21.1521C18.9042 59.583 16.8458 59.285 15.0583 58.6621C16.0062 51.5121 23.4812 45.96 32.5 45.96C41.5187 45.96 48.9938 51.5121 49.9417 58.6621Z" fill="white"/>
<path d="M42.1958 31.3629C42.1958 36.7254 37.8625 41.0857 32.5 41.0857C27.1375 41.0857 22.8042 36.7254 22.8042 31.3629C22.8042 26.0004 27.1375 21.667 32.5 21.667C37.8625 21.667 42.1958 26.0004 42.1958 31.3629Z" fill="white"/>
</svg>
