<svg width="65" height="65" viewBox="0 0 65 65" fill="none" xmlns="http://www.w3.org/2000/svg">
<path opacity="0.4" d="M54.275 18.4709L38.675 7.55632C34.4229 4.57715 27.8958 4.73965 23.8063 7.9084L10.2375 18.498C7.52917 20.6105 5.38959 24.9438 5.38959 28.3563V47.0438C5.38959 53.9501 10.9958 59.5834 17.9021 59.5834H47.0979C54.0042 59.5834 59.6104 53.9771 59.6104 47.0709V28.7084C59.6104 25.0521 57.2542 20.5563 54.275 18.4709Z" fill="white"/>
<path d="M32.5 50.7812C31.3896 50.7812 30.4688 49.8604 30.4688 48.75V40.625C30.4688 39.5146 31.3896 38.5938 32.5 38.5938C33.6104 38.5938 34.5312 39.5146 34.5312 40.625V48.75C34.5312 49.8604 33.6104 50.7812 32.5 50.7812Z" fill="white"/>
</svg>
