<svg width="65" height="65" viewBox="0 0 65 65" fill="none" xmlns="http://www.w3.org/2000/svg">
<path opacity="0.4" d="M52.3792 39.2451L49.6708 34.7492C49.1021 33.7471 48.5875 31.8513 48.5875 30.7409V23.8888C48.5875 15.0596 41.4104 7.85547 32.5542 7.85547C23.6979 7.85547 16.5208 15.0596 16.5208 23.8888V30.7409C16.5208 31.8513 16.0063 33.7471 15.4375 34.7221L12.7021 39.2451C11.6188 41.0596 11.375 43.0638 12.0521 44.9055C12.7021 46.7201 14.2458 48.1284 16.25 48.8055C21.5042 50.593 27.0292 51.4596 32.5542 51.4596C38.0792 51.4596 43.6042 50.593 48.8583 48.8326C50.7542 48.2096 52.2167 46.7742 52.9208 44.9055C53.625 43.0367 53.4354 40.9784 52.3792 39.2451Z" fill="#171717"/>
<path d="M38.5938 8.99199C36.725 8.26074 34.6938 7.85449 32.5542 7.85449C30.4417 7.85449 28.4104 8.23366 26.5417 8.99199C27.7063 6.79824 30.0083 5.41699 32.5542 5.41699C35.1271 5.41699 37.4021 6.79824 38.5938 8.99199Z" fill="#171717"/>
<path d="M40.1646 54.1941C39.0271 57.3357 36.0208 59.5837 32.5 59.5837C30.3604 59.5837 28.2479 58.717 26.7583 57.1732C25.8917 56.3607 25.2417 55.2774 24.8625 54.167C25.2146 54.2212 25.5667 54.2482 25.9458 54.3024C26.5687 54.3837 27.2187 54.4649 27.8687 54.5191C29.4125 54.6545 30.9833 54.7357 32.5542 54.7357C34.0979 54.7357 35.6417 54.6545 37.1583 54.5191C37.7271 54.4649 38.2958 54.4378 38.8375 54.3566C39.2708 54.3024 39.7042 54.2482 40.1646 54.1941Z" fill="#171717"/>
</svg>
