<svg width="55" height="55" viewBox="0 0 55 55" fill="none" xmlns="http://www.w3.org/2000/svg">
<path opacity="0.4" d="M37.102 4.58398H17.8978C9.55617 4.58398 4.58325 9.5569 4.58325 17.8986V37.0798C4.58325 45.4444 9.55617 50.4173 17.8978 50.4173H37.0791C45.4208 50.4173 50.3937 45.4444 50.3937 37.1027V17.8986C50.4166 9.5569 45.4437 4.58398 37.102 4.58398Z" fill="white"/>
<path d="M26.1937 41.6639C20.9228 41.6639 16.6145 37.3555 16.6145 32.0847V24.2243C16.6145 18.2201 21.4958 13.3389 27.4999 13.3389C33.5041 13.3389 38.3853 18.2201 38.3853 24.2243V31.4201C38.3853 34.9035 35.5666 37.7222 32.0833 37.7222C28.5999 37.7222 25.7812 34.9035 25.7812 31.4201V26.8368C25.7812 25.8972 26.5603 25.118 27.4999 25.118C28.4395 25.118 29.2187 25.8972 29.2187 26.8368V31.4201C29.2187 33.0014 30.502 34.2847 32.0833 34.2847C33.6645 34.2847 34.9478 33.0014 34.9478 31.4201V24.2243C34.9478 20.1222 31.602 16.7764 27.4999 16.7764C23.3978 16.7764 20.052 20.1222 20.052 24.2243V32.0847C20.052 35.4764 22.802 38.2264 26.1937 38.2264C27.1333 38.2264 27.9124 39.0055 27.9124 39.9451C27.9124 40.8847 27.1333 41.6639 26.1937 41.6639Z" fill="white"/>
</svg>
