<svg width="1600" height="260" viewBox="0 0 1600 260" fill="none" xmlns="http://www.w3.org/2000/svg">
  <g opacity="0.18" stroke="#154FAE" stroke-width="3" stroke-linecap="round" stroke-linejoin="round">
    <path d="M0 72C62 116 118 122 180 92C244 60 302 60 366 92C430 123 486 123 550 92C614 60 670 60 734 92C798 123 854 123 918 92C982 60 1038 60 1102 92C1166 123 1222 123 1286 92C1350 60 1406 60 1470 92C1514 114 1558 122 1600 120"/>
    <path d="M0 112C58 150 116 154 176 128C236 102 294 102 354 128C414 154 472 154 532 128C592 102 650 102 710 128C770 154 828 154 888 128C948 102 1006 102 1066 128C1126 154 1184 154 1244 128C1304 102 1362 102 1422 128C1482 154 1540 154 1600 132"/>

    <g transform="translate(108 98)">
      <path d="M0 36L24 12H94L118 36V132H0V36Z"/>
      <path d="M24 12V0H94V12"/>
      <path d="M59 12V132"/>
      <path d="M0 46H118"/>
      <path d="M24 78C32 68 46 68 54 78C62 88 76 88 84 78"/>
      <path d="M24 102C32 92 46 92 54 102C62 112 76 112 84 102"/>
    </g>

    <g transform="translate(430 82)">
      <path d="M0 112H126"/>
      <path d="M14 112V70C14 34 40 10 63 10C86 10 112 34 112 70V112"/>
      <path d="M34 112V134"/>
      <path d="M92 112V134"/>
      <path d="M50 10V0"/>
      <path d="M76 10V0"/>
    </g>

    <g transform="translate(782 88)">
      <path d="M8 56C8 28 31 6 59 6C87 6 110 28 110 56V118H8V56Z"/>
      <path d="M24 48H94"/>
      <path d="M59 6V118"/>
      <path d="M24 78H94"/>
      <path d="M24 102H94"/>
    </g>

    <g transform="translate(1080 92)">
      <path d="M0 38L26 14H102L128 38V138H0V38Z"/>
      <path d="M26 14V0H102V14"/>
      <path d="M64 14V138"/>
      <path d="M0 48H128"/>
      <path d="M26 82C34 72 48 72 56 82C64 92 78 92 86 82"/>
      <path d="M26 106C34 96 48 96 56 106C64 116 78 116 86 106"/>
    </g>

    <g transform="translate(1386 80)">
      <path d="M0 114H126"/>
      <path d="M14 114V72C14 36 40 12 63 12C86 12 112 36 112 72V114"/>
      <path d="M34 114V136"/>
      <path d="M92 114V136"/>
      <path d="M50 12V0"/>
      <path d="M76 12V0"/>
    </g>
  </g>
</svg>
