<svg width="1600" height="220" viewBox="0 0 1600 220" fill="none" xmlns="http://www.w3.org/2000/svg">
  <g opacity="0.18" stroke="#154FAE" stroke-width="3" stroke-linecap="round" stroke-linejoin="round">
    <path d="M0 140C88 98 142 96 214 130C290 167 348 168 429 126C502 88 566 88 641 130C716 171 771 171 846 130C924 88 983 88 1058 130C1133 171 1190 171 1268 130C1345 89 1409 89 1484 130C1530 155 1568 160 1600 156"/>
    <path d="M10 182C70 138 118 136 176 176C230 213 285 213 340 176C394 140 448 139 504 176C560 214 617 214 672 176C726 139 783 139 838 176C894 214 951 214 1006 176C1062 138 1120 138 1174 176C1230 215 1288 215 1344 176C1400 136 1458 137 1514 176C1542 195 1572 202 1600 200"/>

    <g transform="translate(88 24)">
      <path d="M0 88L34 6L68 88"/>
      <path d="M14 56H54"/>
      <path d="M24 76H44"/>
      <path d="M34 6V0"/>
    </g>
    <g transform="translate(306 10)">
      <path d="M15 0C15 18 0 24 0 40C0 56 15 70 32 70C49 70 64 56 64 40C64 24 49 18 49 0"/>
      <path d="M32 70V92"/>
      <path d="M16 92H48"/>
    </g>
    <g transform="translate(518 28)">
      <path d="M0 68C0 40 18 18 46 18C74 18 92 40 92 68"/>
      <path d="M18 68V112"/>
      <path d="M74 68V112"/>
      <path d="M18 112H74"/>
      <path d="M46 18V0"/>
    </g>
    <g transform="translate(770 24)">
      <path d="M0 88L34 6L68 88"/>
      <path d="M14 56H54"/>
      <path d="M24 76H44"/>
      <path d="M34 6V0"/>
    </g>
    <g transform="translate(972 12)">
      <path d="M15 0C15 18 0 24 0 40C0 56 15 70 32 70C49 70 64 56 64 40C64 24 49 18 49 0"/>
      <path d="M32 70V92"/>
      <path d="M16 92H48"/>
    </g>
    <g transform="translate(1198 28)">
      <path d="M0 68C0 40 18 18 46 18C74 18 92 40 92 68"/>
      <path d="M18 68V112"/>
      <path d="M74 68V112"/>
      <path d="M18 112H74"/>
      <path d="M46 18V0"/>
    </g>
    <g transform="translate(1406 24)">
      <path d="M0 88L34 6L68 88"/>
      <path d="M14 56H54"/>
      <path d="M24 76H44"/>
      <path d="M34 6V0"/>
    </g>

    <path d="M180 150C174 135 184 120 198 120C212 120 222 135 216 150"/>
    <path d="M608 150C602 135 612 120 626 120C640 120 650 135 644 150"/>
    <path d="M1052 150C1046 135 1056 120 1070 120C1084 120 1094 135 1088 150"/>
    <path d="M1492 150C1486 135 1496 120 1510 120C1524 120 1534 135 1528 150"/>
  </g>
</svg>
